<?xml version="1.0" encoding="UTF-8"?>
<svg id="_レイヤー_1" data-name="レイヤー 1" xmlns="http://www.w3.org/2000/svg" viewBox="0 0 787.53 554.26">
  <defs>
    <style>
      .cls-1 {
        fill: #a5cb0b;
      }
    </style>
  </defs>
  <path class="cls-1" d="M444.71,76.97c-86.62,78.58-103.89,178.11-100.22,230.02,7.05-13.53,14.78-26.72,22.86-39.66,47.39-74.07,112.45-139.15,192.32-177.33,7.73-3.81,16.11-7.31,24.08-10.56,6.8-2.46,17.76-6.69,24.76-8.59,4.19-1.23,8.36-2.48,12.54-3.65-7.48,4.11-15.59,7.92-22.95,12.25-9,4.84-19.16,11.16-27.77,16.42-3.35,2.11-12.53,8.37-16.05,10.67-5.01,3.51-10.58,7.64-15.62,11.18-7.79,6-17.44,13.43-24.99,19.88-29.1,24.43-55.97,52.24-79.74,81.89-23.88,29.7-45.19,61.49-63.94,94.66-3.13,5.53-6.19,11.11-9.17,16.73,35.56,6.82,135.88,18.74,210.36-43.68,87.8-73.58,119.06-175.41,143.58-215.27,29.22-51.18,72.76-62.64,72.76-62.64,0,0-217.26-46.2-342.82,67.7Z"/>
  <path class="cls-1" d="M259.89,232.57c-39.98-43.49-87.63-79.07-141.27-104.32,35.07,9.03,68.26,25,98.23,45.25,27.61,18.78,52.84,41.26,75.06,66.18,11.08,12.49,21.53,25.67,31.02,39.46-.6-36.65-18.1-103.62-81.31-153.06C148.61,53.33,0,96.46,0,96.46c0,0,30.83,5.75,53.74,39.83,19.07,26.46,45.96,95.61,110.7,142.28,54.05,38.96,121.84,26.62,147.2,19.98-15.36-23.36-32.91-45.44-51.74-65.98Z"/>
  <path class="cls-1" d="M335.69,308.79c-6.22,51.27-4.6,103.74,4,154.6,1.41,9.03,3.58,18.4,5.47,27.32,1.17,4.43,4.03,15.77,5.23,20.12,1.52,4.83,4.91,15.65,6.44,20.55,2.91,9.28-2.26,19.16-11.54,22.06-9.92,3.18-20.61-3.21-22.54-13.43-1.01-5.07-3.34-17.15-4.29-22-8.31-50.69-8.62-102.95-2.37-153.83,2.45-19.32,5.53-38.41,10.22-57.35,1.61-5.83,10.24-4.15,9.4,1.96h0Z"/>
</svg>